<svg width="25" height="26" viewBox="0 0 25 26" fill="none" xmlns="http://www.w3.org/2000/svg">
<g clip-path="url(#clip0_50_298)">
<path d="M11.2434 0.5602C8.50126 0.827879 5.8541 2.08085 3.83243 4.07421C2.7099 5.1791 1.92804 6.26691 1.27463 7.63379C-1.7858 14.0125 0.855775 21.6841 7.15534 24.7311C7.80875 25.0501 9.04298 25.5 9.24961 25.5H9.37247V24.0705V22.6409L9.24961 22.6751C7.84226 23.0966 6.54102 22.8346 5.68656 21.9575C5.39615 21.6671 5.27887 21.4791 4.92145 20.733C4.46351 19.7648 4.30155 19.5598 3.75983 19.2351C3.03382 18.8023 3.16785 18.3752 3.9888 18.5061C4.74833 18.6258 5.36265 19.0814 5.9658 19.9755C6.15009 20.2489 6.37348 20.5394 6.46842 20.6191C7.01014 21.0861 8.30579 21.2114 9.12675 20.8754L9.45066 20.7444L9.56794 20.3173C9.68522 19.8958 9.86952 19.4857 10.0929 19.1497C10.1599 19.0529 10.2102 18.9618 10.2102 18.9447C10.2102 18.9219 10.0761 18.8877 9.90861 18.8706C9.74665 18.8479 9.37247 18.7681 9.08765 18.6998C6.43491 18.0277 5.0499 16.5299 4.74274 13.9955C4.53611 12.3438 4.88236 10.8516 5.73124 9.71258L5.94346 9.43351L5.84293 8.93801C5.65864 8.00968 5.72565 6.91617 6.02164 6.11883L6.13892 5.7942H6.41257C7.33405 5.7942 8.39515 6.22135 9.27753 6.94465C9.48417 7.11551 9.65171 7.20664 9.70197 7.18955C10.0147 7.06425 11.1987 6.92187 12.0811 6.89339C13.1701 6.85922 14.0525 6.92756 14.879 7.10412C15.3705 7.21233 15.376 7.21233 15.5157 7.10412C15.8954 6.80227 16.3534 6.47763 16.5768 6.35234C17.1408 6.0334 18.012 5.7942 18.5873 5.7942H18.8609L18.9782 6.11883C19.2128 6.74532 19.2686 7.18955 19.2407 8.01537C19.2239 8.43682 19.1737 8.92662 19.129 9.10318L19.0508 9.42781L19.263 9.71258C20.2738 11.0624 20.5754 12.976 20.0896 14.9352C19.7377 16.3305 18.8553 17.4411 17.5485 18.1132C16.9454 18.4264 15.3593 18.8934 14.9069 18.8934C14.7617 18.8934 14.7617 18.9333 14.9069 19.1497C15.1415 19.5028 15.3537 19.9926 15.471 20.4483C15.5771 20.8754 15.5883 21.1032 15.6106 23.2048L15.6385 25.5H15.7558C15.9792 25.5 17.1967 25.0444 17.8836 24.714C19.1457 24.099 20.1398 23.3927 21.1507 22.3961C22.2788 21.2798 23.0495 20.2147 23.7196 18.8308C25.8697 14.4055 25.2778 9.0747 22.2006 5.19619C21.6868 4.55262 20.6704 3.55594 20.0058 3.04905C17.4703 1.12973 14.3931 0.252651 11.2434 0.5602Z" fill="#FEF9EF"/>
</g>
<defs>
<clipPath id="clip0_50_298">
<rect width="25" height="25" fill="white" transform="translate(0 0.5)"/>
</clipPath>
</defs>
</svg>
