<svg width="25" height="26" viewBox="0 0 25 26" fill="none" xmlns="http://www.w3.org/2000/svg">
<g clip-path="url(#clip0_50_295)">
<path d="M2.16772 0.573242C1.15698 0.792969 0.287842 1.67188 0.0681152 2.69238C-0.0344238 3.17578 -0.0344238 22.8242 0.0681152 23.3076C0.287842 24.3379 1.16187 25.2119 2.19214 25.4316C2.67554 25.5342 22.324 25.5342 22.8074 25.4316C23.8376 25.2119 24.7117 24.3379 24.9314 23.3076C25.0339 22.8242 25.0339 3.17578 24.9314 2.69238C24.7117 1.66211 23.8425 0.788086 22.8123 0.573242C22.3435 0.470703 2.62671 0.470703 2.16772 0.573242ZM6.11304 4.02051C6.68921 4.14258 7.19214 4.49414 7.52417 5.00195C7.91479 5.60742 7.97827 6.4668 7.67554 7.10645C7.49487 7.49707 7.08472 7.94629 6.7478 8.13184C5.39038 8.86914 3.73999 8.04395 3.50073 6.51074C3.27124 5.02148 4.64331 3.71289 6.11304 4.02051ZM18.0808 9.7041C20.0437 10.0459 21.2351 11.418 21.4841 13.6104C21.5134 13.8691 21.533 15.6758 21.533 18.0391V22.0332H19.6824H17.8269L17.8123 18.4541C17.7927 14.8994 17.7927 14.8799 17.6804 14.5137C17.3972 13.5713 16.8796 13.1123 16.0007 13.0195C15.0486 12.9219 14.1941 13.3809 13.8132 14.1914C13.5349 14.7871 13.5251 14.9238 13.5251 18.6445V22.0332H11.7429H9.96069V16.0029V9.97266H11.7429H13.5251V10.7637L13.53 11.5596L13.6326 11.4131C13.8523 11.1006 14.5408 10.4707 14.907 10.2461C15.3123 9.99219 15.9226 9.75781 16.3572 9.68457C16.782 9.61621 17.6267 9.62598 18.0808 9.7041ZM7.55835 16.0176L7.56811 22.0332L5.70288 22.0234L3.83276 22.0088L3.81811 16.0518C3.81323 12.7754 3.81811 10.0654 3.83276 10.0312C3.84741 9.98242 4.2478 9.97266 5.698 9.98242L7.5437 9.99707L7.55835 16.0176Z" fill="#FEF9EF"/>
</g>
<defs>
<clipPath id="clip0_50_295">
<rect width="25" height="25" fill="white" transform="translate(0 0.5)"/>
</clipPath>
</defs>
</svg>
