<svg width="31" height="42" viewBox="0 0 31 42" fill="none" xmlns="http://www.w3.org/2000/svg">
<path d="M16.9142 1.44975C16.1332 0.668706 14.8668 0.668706 14.0858 1.44975L1.35787 14.1777C0.576818 14.9587 0.576818 16.2251 1.35787 17.0061C2.13892 17.7872 3.40525 17.7872 4.18629 17.0061L15.5 5.69239L26.8137 17.0061C27.5948 17.7872 28.8611 17.7872 29.6421 17.0061C30.4232 16.2251 30.4232 14.9587 29.6421 14.1777L16.9142 1.44975ZM13.5 39.136C13.5 40.2406 14.3954 41.136 15.5 41.136C16.6046 41.136 17.5 40.2406 17.5 39.136L13.5 39.136ZM13.5 2.86397L13.5 21L17.5 21L17.5 2.86397L13.5 2.86397ZM13.5 21L13.5 39.136L17.5 39.136L17.5 21L13.5 21Z" fill="currentColor"/>
</svg>
